<?xml version="1.0" encoding="UTF-8"?>
<svg id="Capa_1" data-name="Capa 1" xmlns="http://www.w3.org/2000/svg" xmlns:xlink="http://www.w3.org/1999/xlink" viewBox="0 0 8.97 9.18">
  <defs>
    <style>
      .cls-1 {
        fill: url(#Degradado_sin_nombre_8-2);
      }

      .cls-1, .cls-2 {
        stroke-width: 0px;
      }

      .cls-2 {
        fill: url(#Degradado_sin_nombre_8);
      }
    </style>
    <linearGradient id="Degradado_sin_nombre_8" data-name="Degradado sin nombre 8" x1="4.04" y1="1.38" x2="4.04" y2="9.47" gradientUnits="userSpaceOnUse">
      <stop offset="0" stop-color="#5edfc0"/>
      <stop offset="1" stop-color="#43b1ef"/>
    </linearGradient>
    <linearGradient id="Degradado_sin_nombre_8-2" data-name="Degradado sin nombre 8" x1="7.08" y1=".38" x2="7.08" y2="4.17" xlink:href="#Degradado_sin_nombre_8"/>
  </defs>
  <path class="cls-2" d="M0,4.87c1.1-.07,2.05-.5,2.82-1.32.77-.83,1.17-1.83,1.23-2.98.06,1.15.46,2.16,1.23,2.99.77.83,1.72,1.26,2.8,1.32-1.08.06-2.03.49-2.8,1.32-.77.83-1.17,1.83-1.23,2.99,0-.2-.03-.4-.06-.6-.03-.2-.08-.4-.14-.59-.06-.19-.13-.38-.21-.57-.08-.18-.18-.36-.28-.53-.1-.17-.22-.33-.35-.48-.13-.15-.26-.3-.4-.43-.14-.13-.29-.26-.45-.37-.16-.11-.32-.21-.5-.3-.17-.09-.35-.16-.53-.23-.18-.06-.37-.11-.55-.15-.19-.04-.38-.06-.58-.07Z"/>
  <path class="cls-1" d="M5.18,2.02c.52-.03.96-.23,1.32-.62.36-.39.55-.86.58-1.4.03.54.21,1.01.58,1.4.36.39.81.59,1.31.62-.51.03-.95.23-1.31.62-.36.39-.55.86-.58,1.4,0-.09-.01-.19-.03-.28-.02-.09-.04-.19-.06-.28-.03-.09-.06-.18-.1-.27-.04-.09-.08-.17-.13-.25-.05-.08-.1-.16-.16-.23-.06-.07-.12-.14-.19-.2-.07-.06-.14-.12-.21-.17-.07-.05-.15-.1-.23-.14-.08-.04-.16-.08-.25-.11-.09-.03-.17-.05-.26-.07-.09-.02-.18-.03-.27-.03Z"/>
</svg>