<?xml version="1.0" encoding="UTF-8"?>
<svg id="Capa_1" data-name="Capa 1" xmlns="http://www.w3.org/2000/svg" xmlns:xlink="http://www.w3.org/1999/xlink" viewBox="0 0 6.61 10.78">
  <defs>
    <style>
      .cls-1 {
        fill: url(#Degradado_sin_nombre_20);
        stroke-width: 0px;
      }
    </style>
    <linearGradient id="Degradado_sin_nombre_20" data-name="Degradado sin nombre 20" x1="4.28" y1=".12" x2="2.64" y2="10.05" gradientUnits="userSpaceOnUse">
      <stop offset="0" stop-color="#dbcb2f"/>
      <stop offset="1" stop-color="#d4571a"/>
    </linearGradient>
  </defs>
  <path class="cls-1" d="M3.67,0C3.24,0,2.83.39,2.76.96c-.08.6.26,1.11.72,1.17.46.06.92-.35,1.01-.95C4.57.57,4.22.06,3.76,0c-.03,0-.06,0-.09,0M2.78,2.24c-.89.15-1.76.98-2.2,1.55-.27.78-.34,1.56-.48,2.34l.66-.02c.15-.59.19-1.22.49-1.77.35-.19.63-.48.9-.79-.15.77-.33,1.69-.31,2.38.7,1.66,2.24,3.29,3.11,4.83l.7-.57c-.67-1.3-1.35-2.49-2.21-3.75.05-.17,1.01-3.83.66-4.03-.47.21-.96.14-1.32-.18M4.46,3.61c-.07.42-.12.82-.23,1.24.11.13.18.25.33.36.61.36,1.22.62,1.83.86l.22-.7-1.81-.88c-.1-.29-.18-.59-.33-.87M1.69,6.66c-.12.59-.23,1.18-.27,1.79-.37.74-.84,1.21-1.42,1.79l.7.54c.54-.59,1.17-1.1,1.56-1.73l.33-1c-.37-.44-.67-.91-.9-1.4"/>
</svg>