<svg xmlns="http://www.w3.org/2000/svg" xmlns:xlink="http://www.w3.org/1999/xlink" viewBox="0 0 326.28 326.28"><defs><linearGradient id="Degradado_sin_nombre_16" x1="35.38" y1="219.76" x2="260.24" y2="235.1" gradientUnits="userSpaceOnUse"><stop offset="0" stop-color="#00aa69" stop-opacity="0"/><stop offset="0.01" stop-color="#00aa6d" stop-opacity="0.12"/><stop offset="0.03" stop-color="#00aa73" stop-opacity="0.3"/><stop offset="0.06" stop-color="#00aa78" stop-opacity="0.45"/><stop offset="0.08" stop-color="#00aa7c" stop-opacity="0.56"/><stop offset="0.11" stop-color="#00aa7f" stop-opacity="0.64"/><stop offset="0.15" stop-color="#00aa81" stop-opacity="0.69"/><stop offset="0.23" stop-color="#00aa81" stop-opacity="0.7"/><stop offset="0.38" stop-color="#2bacb5" stop-opacity="0.82"/><stop offset="0.59" stop-color="#6aaeff"/><stop offset="0.73" stop-color="#5c74bb"/><stop offset="1" stop-color="#3f0035"/></linearGradient><linearGradient id="Degradado_sin_nombre_16-2" x1="78.02" y1="92.32" x2="291.17" y2="106.87" xlink:href="#Degradado_sin_nombre_16"/><linearGradient id="Degradado_sin_nombre_16-3" x1="239.97" y1="221.23" x2="297.99" y2="227.61" xlink:href="#Degradado_sin_nombre_16"/><linearGradient id="Degradado_sin_nombre_16-4" x1="257.94" y1="237.85" x2="316.88" y2="241.8" xlink:href="#Degradado_sin_nombre_16"/><linearGradient id="Degradado_sin_nombre_16-5" x1="244.73" y1="242.6" x2="277.09" y2="244.65" xlink:href="#Degradado_sin_nombre_16"/><linearGradient id="Degradado_sin_nombre_16-6" x1="-7.52" y1="97.89" x2="162.91" y2="99.72" xlink:href="#Degradado_sin_nombre_16"/><linearGradient id="Degradado_sin_nombre_16-7" x1="-7.4" y1="85.97" x2="163.03" y2="87.8" xlink:href="#Degradado_sin_nombre_16"/></defs><g id="Capa_8" data-name="Capa 8"><path d="M258.56,204.52c-16.27,13.58-35.16,23.94-54.85,32-2.46,1-4.94,2-7.42,3s-5,1.79-7.55,2.64-5.06,1.67-7.61,2.46-5.11,1.54-7.68,2.29A282.12,282.12,0,0,1,142,253.51a228.84,228.84,0,0,1-32.2,2.25c-5.41-.1-10.82-.36-16.24-1-1.35-.12-2.71-.28-4.06-.48s-2.71-.32-4.05-.6l-4-.78-4-.93c-2.67-.68-5.33-1.4-8-2.31l-2-.66-1.95-.75-1.94-.77-1.91-.9a53.6,53.6,0,0,1-14.18-9.4,30.44,30.44,0,0,1-8.64-14.85,26.26,26.26,0,0,1-.44-8.41,31.51,31.51,0,0,1,2.09-7.86v0a.41.41,0,0,1,.52-.22.4.4,0,0,1,.24.47,27.06,27.06,0,0,0,.17,15.24A27.67,27.67,0,0,0,50.23,234a49.31,49.31,0,0,0,13.44,7.62,87,87,0,0,0,15,4.23,127.72,127.72,0,0,0,15.48,2c5.19.4,10.41.49,15.62.41s10.42-.4,15.62-.8,10.38-1.05,15.53-1.84a319.88,319.88,0,0,0,60.7-15,286.57,286.57,0,0,0,56.53-26.74.39.39,0,0,1,.46.64Z" style="fill:url(#Degradado_sin_nombre_16)"/><path d="M80,119c15.82-11.94,33.72-21,52.33-28.07a247.09,247.09,0,0,1,58-14.5L194.1,76l3.76-.34c2.5-.25,5-.39,7.53-.54,5-.21,10.08-.35,15.15-.15a146.36,146.36,0,0,1,15.19,1.2,112.12,112.12,0,0,1,15.09,3c1.25.36,2.49.69,3.73,1.07l3.69,1.23c1.23.43,2.44.93,3.66,1.4a17.79,17.79,0,0,1,1.8.78l1.78.86a52.79,52.79,0,0,1,13.17,9A30,30,0,0,1,287,107.15a24.09,24.09,0,0,1,.84,7.84,28,28,0,0,1-1.54,7.46l0,.06a.4.4,0,0,1-.77-.21,25.36,25.36,0,0,0-1.11-14.18,27.1,27.1,0,0,0-8.47-11.41A48.87,48.87,0,0,0,263.4,89.5a80.86,80.86,0,0,0-13.92-4.18,144.6,144.6,0,0,0-29-2.83,224.07,224.07,0,0,0-29.16,1.83,309.84,309.84,0,0,0-57,12.63q-14,4.45-27.46,10.12a286.6,286.6,0,0,0-26.43,12.59.41.41,0,0,1-.54-.16A.39.39,0,0,1,80,119Z" style="fill:url(#Degradado_sin_nombre_16-2)"/><path d="M264.92,234a.49.49,0,0,1,0-.2c0-.17-.05-.34-.07-.51s0-.3-.05-.45l-.06-.45c0-.13,0-.26,0-.39s0-.33-.07-.5l-.09-.57c0-.22-.07-.44-.11-.66s-.1-.49-.16-.73a8.68,8.68,0,0,0-.27-1,7.24,7.24,0,0,0-.44-1.12,4.91,4.91,0,0,0-.65-1,4.76,4.76,0,0,0-1.1-.9,7.74,7.74,0,0,0-1.17-.53c-.33-.11-.66-.21-1-.29s-.86-.19-1.3-.27l-.63-.1-.64-.1c-.23,0-.45-.06-.68-.09l-.55-.07-.47,0-.4-.05s0,0,0,0l.59-.06.65-.09.6-.07.58-.08.6-.1.51-.08c.43-.08.85-.17,1.28-.28a8.71,8.71,0,0,0,1.51-.53,4.83,4.83,0,0,0,1.16-.73,4.31,4.31,0,0,0,1-1.2,6.49,6.49,0,0,0,.45-1,10.42,10.42,0,0,0,.35-1.21c.1-.39.17-.79.24-1.19s.1-.6.15-.9l.09-.67.09-.7c0-.13,0-.25,0-.38l.06-.46a2.17,2.17,0,0,1,0-.25,1.49,1.49,0,0,1,0,.21c0,.17,0,.34.07.51s0,.31.05.46,0,.35.07.53,0,.26.05.39.05.38.08.57.05.32.08.48.08.49.13.73.14.64.22,1a10,10,0,0,0,.41,1.28,5.36,5.36,0,0,0,.54,1,3.7,3.7,0,0,0,.46.57,4.32,4.32,0,0,0,1.08.83,7.07,7.07,0,0,0,1.24.52c.41.13.83.24,1.25.33s.7.14,1.06.2l.74.12.57.08.61.08.46.05.46.06.27,0a.07.07,0,0,1,.06,0l-.25,0-.6.07-.44.05-.44.06-.48.07-.61.09-.63.1-.78.16c-.34.07-.68.15-1,.25a8.25,8.25,0,0,0-1.17.44,5.6,5.6,0,0,0-.94.57,4.36,4.36,0,0,0-.9,1,4.48,4.48,0,0,0-.35.6,5.65,5.65,0,0,0-.29.67,12.72,12.72,0,0,0-.38,1.24c-.08.35-.15.71-.22,1.07s-.1.58-.14.87-.08.49-.11.73-.05.41-.08.62l-.09.75-.06.49S264.92,233.94,264.92,234Z" style="fill:url(#Degradado_sin_nombre_16-3)"/><path d="M280.49,256.54a1.48,1.48,0,0,1-.05-.35c0-.29-.08-.58-.11-.87l-.09-.78c0-.25-.07-.5-.1-.76l-.09-.67-.12-.86-.15-1c-.07-.38-.13-.75-.2-1.13s-.17-.84-.26-1.26c-.13-.58-.29-1.15-.47-1.72a12.66,12.66,0,0,0-.76-1.91,8.63,8.63,0,0,0-1.12-1.68,7.34,7.34,0,0,0-1.88-1.54,10.68,10.68,0,0,0-2-.91c-.56-.2-1.13-.36-1.71-.51-.74-.18-1.48-.33-2.23-.46l-1.09-.18-1.09-.16c-.4,0-.79-.11-1.18-.16l-.93-.11-.81-.1-.69-.07a.05.05,0,0,1,.06,0l1-.11,1.12-.14,1-.13,1-.15,1-.15.87-.15c.74-.14,1.47-.29,2.2-.48a15.7,15.7,0,0,0,2.6-.91,8.55,8.55,0,0,0,2-1.25,7.39,7.39,0,0,0,1.66-2.07,12.09,12.09,0,0,0,.78-1.72,21.47,21.47,0,0,0,.6-2.08c.16-.68.29-1.36.41-2,.09-.51.17-1,.25-1.54s.1-.77.16-1.15.11-.81.16-1.21c0-.22,0-.43.07-.64s.07-.53.1-.8a3,3,0,0,1,.06-.42c0,.12,0,.24.05.36,0,.29.07.58.1.88l.09.77.12.91.09.68c.05.32.09.65.14,1s.09.56.13.83.15.84.23,1.26.23,1.1.37,1.64a15.58,15.58,0,0,0,.72,2.19,9.2,9.2,0,0,0,.91,1.73,8.26,8.26,0,0,0,.79,1,7.74,7.74,0,0,0,1.86,1.41,12.73,12.73,0,0,0,2.12.9c.71.23,1.43.41,2.16.57s1.2.24,1.8.34l1.27.2,1,.14,1,.14.79.09.8.1.46.05s.07,0,.1,0l-.43,0-1,.13-.75.09-.74.09-.83.12-1.05.15-1.08.18c-.44.08-.89.17-1.33.27-.59.12-1.17.27-1.74.44a13.13,13.13,0,0,0-2,.75,8.55,8.55,0,0,0-1.61,1,7.2,7.2,0,0,0-1.55,1.66,8.2,8.2,0,0,0-.61,1c-.18.37-.34.75-.49,1.14a17.56,17.56,0,0,0-.64,2.14c-.15.6-.27,1.21-.38,1.82s-.18,1-.25,1.51-.13.83-.19,1.24-.09.72-.13,1.07-.11.86-.16,1.29-.07.56-.1.84A1.37,1.37,0,0,1,280.49,256.54Z" style="fill:url(#Degradado_sin_nombre_16-4)"/><path d="M254.18,250.32s0-.1,0-.15,0-.24,0-.36,0-.21,0-.32,0-.21,0-.32,0-.18,0-.27,0-.24-.05-.36l-.06-.41c0-.15-.06-.31-.08-.46s-.07-.35-.11-.53-.12-.48-.2-.71a4.47,4.47,0,0,0-.31-.79,3.3,3.3,0,0,0-.47-.7,3,3,0,0,0-.77-.64,5.23,5.23,0,0,0-.84-.37,5.79,5.79,0,0,0-.71-.21c-.3-.08-.61-.14-.92-.2l-.45-.07-.46-.07-.48-.06-.39,0-.33,0-.29,0,0,0,.42,0,.47-.06.42-.05.41-.06.43-.07.36-.06c.3-.06.61-.12.91-.2a6.88,6.88,0,0,0,1.08-.37,3.67,3.67,0,0,0,.82-.52,3.35,3.35,0,0,0,.69-.86,4.64,4.64,0,0,0,.32-.72,8.47,8.47,0,0,0,.25-.86c.07-.28.12-.56.17-.84s.07-.43.1-.64.05-.32.07-.48,0-.33.07-.5l0-.26c0-.11,0-.22,0-.33a1.1,1.1,0,0,1,0-.18.77.77,0,0,1,0,.15c0,.12,0,.24,0,.36s0,.22,0,.33,0,.25.05.37,0,.19,0,.28l.06.41c0,.11,0,.23,0,.34s.06.35.1.52.09.46.15.68a6.06,6.06,0,0,0,.3.91,3.55,3.55,0,0,0,.38.72,3,3,0,0,0,.32.4,3.36,3.36,0,0,0,.77.59,5.65,5.65,0,0,0,.88.37,9.12,9.12,0,0,0,.9.23c.24.06.49.1.74.15l.53.08.41.06.43.05.33,0,.33,0,.19,0a0,0,0,0,1,0,0l-.18,0-.43.05-.31,0-.31,0-.34,0-.44.07-.44.07-.55.11a6,6,0,0,0-.73.19,5.21,5.21,0,0,0-.83.31,3.42,3.42,0,0,0-.66.4,3.27,3.27,0,0,0-.65.69c-.09.14-.17.28-.25.43a3.9,3.9,0,0,0-.2.47,7,7,0,0,0-.27.89c-.06.25-.11.5-.16.75s-.07.42-.1.63-.05.34-.08.51,0,.3,0,.45-.05.35-.07.53,0,.23,0,.35A.25.25,0,0,1,254.18,250.32Z" style="fill:url(#Degradado_sin_nombre_16-5)"/><path d="M65.88,111.12c0-.09,0-.18,0-.26s0-.42-.07-.63,0-.37-.07-.56,0-.37-.07-.55l-.06-.49-.09-.62c0-.24-.07-.48-.11-.71s-.09-.54-.14-.82-.12-.6-.19-.91-.21-.83-.34-1.25a9.07,9.07,0,0,0-.56-1.38,5.77,5.77,0,0,0-.8-1.21A5.42,5.42,0,0,0,62,100.61a8,8,0,0,0-1.46-.66c-.41-.14-.82-.26-1.24-.37s-1.07-.24-1.62-.33l-.78-.13-.8-.12-.84-.11-.68-.08L54,98.74l-.51-.06s0,0,.05,0l.73-.08.81-.1.74-.09.72-.11.74-.11.63-.11c.54-.1,1.07-.21,1.59-.35a11.4,11.4,0,0,0,1.89-.65,6.37,6.37,0,0,0,1.44-.91A5.39,5.39,0,0,0,64,94.65a8.23,8.23,0,0,0,.56-1.25A13.66,13.66,0,0,0,65,91.89q.17-.73.3-1.47l.18-1.12c0-.28.07-.56.11-.83l.12-.88c0-.16,0-.31,0-.46s0-.39.07-.58a1.67,1.67,0,0,1,0-.31l0,.26c0,.21,0,.43.07.64s.05.37.07.56l.09.66.06.49c0,.23.07.47.1.7s.07.41.1.61.1.6.16.91.17.79.27,1.18a12.31,12.31,0,0,0,.52,1.59A6.49,6.49,0,0,0,68,95.09a5.28,5.28,0,0,0,1.92,1.73,8.67,8.67,0,0,0,1.54.65,13.75,13.75,0,0,0,1.56.41c.43.1.87.18,1.3.25l.92.15.72.1.75.1.57.07.58.07.33,0s.05,0,.08,0l-.31,0-.75.09-.55.07-.54.07-.6.08-.76.12-.78.13c-.32,0-.64.12-1,.19a12.9,12.9,0,0,0-1.26.32,9.47,9.47,0,0,0-1.46.54,6.55,6.55,0,0,0-1.16.71,5.37,5.37,0,0,0-1.13,1.2,6.93,6.93,0,0,0-.43.75,6,6,0,0,0-.36.82,14.51,14.51,0,0,0-.47,1.55q-.15.66-.27,1.32c-.07.37-.13.73-.18,1.1s-.1.59-.14.89l-.09.78-.12.93c0,.2,0,.4-.07.61A.93.93,0,0,1,65.88,111.12Z" style="fill:url(#Degradado_sin_nombre_16-6)"/><path d="M78.29,92.05s0-.08,0-.11l0-.26,0-.23a1.6,1.6,0,0,0,0-.23l0-.2c0-.09,0-.18,0-.26s0-.2,0-.3L78,90.12c0-.12,0-.25-.08-.37s-.09-.35-.14-.52a3.57,3.57,0,0,0-.23-.57,2.39,2.39,0,0,0-.34-.51,2.26,2.26,0,0,0-.56-.46,3.24,3.24,0,0,0-.6-.27,4.44,4.44,0,0,0-.52-.15c-.22-.06-.44-.1-.67-.14l-.32-.06-.33,0-.35,0-.28,0-.24,0-.21,0a0,0,0,0,1,0,0l.31,0,.33,0,.31,0,.3,0,.31,0,.26-.05.66-.14a5.54,5.54,0,0,0,.78-.27,2.83,2.83,0,0,0,.59-.38,2.28,2.28,0,0,0,.5-.62,3.48,3.48,0,0,0,.24-.52,6.32,6.32,0,0,0,.18-.62l.12-.61c0-.16,0-.31.07-.47s0-.23,0-.34,0-.24,0-.37,0-.12,0-.19l0-.24s0-.08,0-.12v.1l0,.27,0,.23c0,.09,0,.18,0,.27a1.49,1.49,0,0,1,0,.21c0,.09,0,.19,0,.29a2.17,2.17,0,0,0,0,.25c0,.12,0,.25.07.38a4.85,4.85,0,0,0,.11.49,4.2,4.2,0,0,0,.21.66,2.53,2.53,0,0,0,.28.51,2.37,2.37,0,0,0,.23.3,2.28,2.28,0,0,0,.56.42,3.61,3.61,0,0,0,.64.27c.21.07.43.12.64.17l.55.1a2.32,2.32,0,0,0,.38.06l.29,0,.32,0,.23,0,.24,0,.14,0h0l-.13,0-.31,0-.23,0-.22,0-.25,0-.31,0-.33,0-.4.08-.52.13a6.19,6.19,0,0,0-.6.23,2.92,2.92,0,0,0-.48.29,2.47,2.47,0,0,0-.47.5,1.92,1.92,0,0,0-.18.31,2.52,2.52,0,0,0-.15.34,5.17,5.17,0,0,0-.19.64l-.12.55c0,.15-.05.3-.07.46l-.06.37c0,.1,0,.21,0,.32s0,.26-.05.38,0,.17,0,.26A.35.35,0,0,0,78.29,92.05Z" style="fill:url(#Degradado_sin_nombre_16-7)"/><polygon points="64.42 185.78 52.15 185.78 52.15 196.16 101.68 196.16 101.68 185.78 64.97 185.78 64.42 185.78" style="fill:#fff"/><polygon points="64.75 140.5 65.32 140.5 101.68 140.5 101.68 130.12 52.15 130.12 52.15 140.5 64.75 140.5" style="fill:#fff"/><rect x="52.15" y="157.57" width="44.15" height="10.09" style="fill:#fff"/><path d="M163.88,196.16a37.82,37.82,0,0,1-13.81-2.48,32.93,32.93,0,0,1-11-7,31.62,31.62,0,0,1-7.25-10.5,34.87,34.87,0,0,1,0-26.23A31.16,31.16,0,0,1,139,139.52a33.58,33.58,0,0,1,11-6.92,40,40,0,0,1,27.6,0,32.23,32.23,0,0,1,11,6.88,31.42,31.42,0,0,1,7.2,10.5,33.36,33.36,0,0,1,2.57,13.21,33,33,0,0,1-2.57,13.16,31.88,31.88,0,0,1-18.16,17.43A38,38,0,0,1,163.88,196.16Zm0-10.46a23.63,23.63,0,0,0,8.94-1.65,21.16,21.16,0,0,0,7.11-4.68,21.63,21.63,0,0,0,4.72-7.15,23.68,23.68,0,0,0,1.7-9.08,24.25,24.25,0,0,0-1.65-9.08A20.76,20.76,0,0,0,180,146.9a21.76,21.76,0,0,0-7.15-4.67,23.63,23.63,0,0,0-8.94-1.65,24.34,24.34,0,0,0-9,1.65,20.62,20.62,0,0,0-7.2,4.72,23.2,23.2,0,0,0,0,32.38,20.62,20.62,0,0,0,7.2,4.72A24.34,24.34,0,0,0,163.88,185.7Z" style="fill:#fff"/><polygon points="253.41 130.12 247.29 141.21 271.73 185.42 222.8 185.42 216.85 196.16 289.13 196.16 253.41 130.12" style="fill:#fff"/></g></svg>